<svg width="181" height="119" viewBox="0 0 181 119" fill="none" xmlns="http://www.w3.org/2000/svg">
<g clip-path="url(#clip0_4_25)">
<path d="M121.631 109.445L169.179 73.344L121.824 36.8399M58.5553 36.5712L11.007 72.6722L58.362 109.176" stroke="#5856D6" stroke-width="9" stroke-linecap="round" stroke-linejoin="round"/>
<path d="M104.477 62.4301C106.141 61.1254 108.448 59.9997 108.448 59.9997C108.448 59.9997 101.888 61.342 95.363 61.9406C87.381 62.6699 78.8075 62.7896 74.5057 62.1054C64.3272 60.4953 80.1124 56.236 80.1124 56.236C80.1124 56.236 73.9972 55.7397 66.4467 59.8974C57.5386 64.8324 88.4533 67.2366 104.477 62.4301ZM90.0244 56.0828C86.8273 47.7084 75.9862 40.3193 90.0995 27.5355C107.705 11.5948 98.7251 1.13963 98.7251 1.13963C102.324 17.7002 85.8597 22.6419 79.8857 32.8957C75.8179 39.9074 81.8297 47.4715 90.0244 56.0828ZM109.532 21.6667C109.549 21.6668 79.8252 30.115 93.9568 49.0509C98.127 54.6295 92.8277 59.6192 92.8277 59.6192C92.8277 59.6192 103.468 53.3211 98.6088 45.3703C94.0707 37.9495 90.5901 34.2535 109.532 21.6667ZM108.359 74.6255C108.266 74.8117 108.151 74.9824 108.019 75.1331C129.774 68.6282 121.821 51.9119 111.423 56.0965C110.862 56.3322 110.376 56.7605 110.031 57.324C110.638 57.0729 111.262 56.8792 111.896 56.7446C117.152 55.4945 124.667 64.9252 108.359 74.6255ZM116.317 86.858C116.317 86.858 118.768 89.1986 113.612 90.9974C103.793 94.3816 72.8021 95.2861 64.2066 90.922C61.1101 89.3619 66.9272 87.2135 68.7582 86.7711C70.657 86.3093 71.7581 86.3923 71.7581 86.3923C68.3261 83.5777 49.4977 91.7986 62.1817 94.2223C96.7686 100.872 125.284 91.5762 116.317 86.858ZM78.461 78.5892C65.1156 82.8394 86.5419 91.8208 103.541 83.4941C101.887 82.7436 100.291 81.8329 98.7699 80.7716C91.1921 82.4033 87.6846 82.5057 80.8082 81.5754C75.1343 80.807 78.461 78.5892 78.461 78.5892ZM108.874 97.7517C95.5325 100.592 79.0819 100.189 69.3446 98.2866C69.3447 98.267 71.3389 100.194 81.6043 101.002C97.2225 102.225 121.218 100.526 121.8 91.992C121.8 91.992 120.707 95.218 108.874 97.7517ZM101.559 70.2691C91.5232 72.4581 85.712 72.3744 78.378 71.4617C72.704 70.752 76.4228 67.5961 76.4228 67.5961C61.7016 73.1718 84.5576 79.6531 105.128 72.7907C103.801 72.243 102.586 71.3845 101.559 70.2691Z" fill="#ED4264"/>
</g>
<defs>
<clipPath id="clip0_4_25">
<rect width="181" height="119" fill="white"/>
</clipPath>
</defs>
</svg>
